/* XPM */
static char *a84f8dcc28e145269da0d0340786255a[] = {
/* columns rows colors chars-per-pixel */
"64 64 256 2 ",
"   c #792501",
".  c #842C02",
"X  c #8D2E02",
"o  c #942D05",
"O  c #9C2D04",
"+  c #952300",
"@  c #8B3202",
"#  c #853002",
"$  c #923501",
"%  c #9C3203",
"&  c #9C3901",
"*  c #A32C03",
"=  c #AC2E04",
"-  c #A43303",
";  c #AB3504",
":  c #A53A02",
">  c #AC3C04",
",  c #B43104",
"<  c #B43B03",
"1  c #BC3D01",
"2  c #B93504",
"3  c #F51400",
"4  c #F23304",
"5  c #F23805",
"6  c #9D4805",
"7  c #AD4405",
"8  c #AF4C04",
"9  c #B44304",
"0  c #BC4303",
"q  c #B34C04",
"w  c #BC4B05",
"e  c #B55504",
"r  c #BE5305",
"t  c #BA5C05",
"y  c #B6500C",
"u  c #947313",
"i  c #9B7714",
"p  c #917313",
"a  c #BE6305",
"s  c #BC6507",
"d  c #B8770D",
"f  c #AC7410",
"g  c #C14301",
"h  c #C34B03",
"j  c #C94C03",
"k  c #C34909",
"l  c #C45504",
"z  c #CB5402",
"x  c #C45B04",
"c  c #CB5C02",
"v  c #C55E0D",
"b  c #D25B02",
"n  c #EC4706",
"m  c #EB5B0A",
"M  c #F35A0A",
"N  c #F84909",
"B  c #C56404",
"V  c #CC6303",
"C  c #C36C05",
"Z  c #CC6D03",
"A  c #CC630B",
"S  c #CC6B0B",
"D  c #C46709",
"F  c #D26202",
"G  c #DB6500",
"H  c #D46B03",
"J  c #DB6D01",
"K  c #D46B0E",
"L  c #C57204",
"P  c #CB7405",
"I  c #CD7B05",
"U  c #C9720C",
"Y  c #CB7E0C",
"T  c #C7760D",
"R  c #D57403",
"E  c #D97403",
"W  c #D27B04",
"Q  c #DB7C03",
"!  c #D27309",
"~  c #D27B0C",
"^  c #D97C0C",
"/  c #C66010",
"(  c #CE7713",
")  c #D87A12",
"_  c #EB690D",
"`  c #F6680E",
"'  c #E17600",
"]  c #E47C00",
"[  c #ED750D",
"{  c #ED7D11",
"}  c #EF7711",
"|  c #F97611",
" . c #F3770F",
".. c #A98916",
"X. c #B88E17",
"o. c #B38A18",
"O. c #AD9218",
"+. c #B79E18",
"@. c #B99617",
"#. c #BBA119",
"$. c #CE8104",
"%. c #D48304",
"&. c #DD8402",
"*. c #D38D04",
"=. c #DA8B02",
"-. c #D3840C",
";. c #DC840A",
":. c #D48B0C",
">. c #DC8A0B",
",. c #D59304",
"<. c #DB9304",
"1. c #DC9C05",
"2. c #DC940C",
"3. c #DC9B0C",
"4. c #D6960A",
"5. c #D48313",
"6. c #DA8514",
"7. c #DA8B14",
"8. c #D58B16",
"9. c #C69C18",
"0. c #C9971B",
"q. c #D49311",
"w. c #DD9314",
"e. c #D59B13",
"r. c #DC9B13",
"t. c #DE9319",
"y. c #D49B1D",
"u. c #DB9E1F",
"i. c #C7910D",
"p. c #E58100",
"a. c #E28D02",
"s. c #E98B00",
"d. c #E4890B",
"f. c #E39302",
"g. c #EB9601",
"h. c #E49B03",
"j. c #EA9C02",
"k. c #E39C0B",
"l. c #E9980C",
"z. c #E38C15",
"x. c #E88A17",
"c. c #F88714",
"v. c #E29213",
"b. c #E49C15",
"n. c #E99C15",
"m. c #E49D19",
"M. c #E59718",
"N. c #F39414",
"B. c #F39B16",
"V. c #FA9516",
"C. c #DFA205",
"Z. c #DCA409",
"A. c #C7A819",
"S. c #DCA314",
"D. c #DBAD13",
"F. c #D4A41B",
"G. c #D9A819",
"H. c #D4B41B",
"J. c #DCB21C",
"K. c #DAB91A",
"L. c #E4A304",
"P. c #EAA503",
"I. c #E5AC06",
"U. c #ECAC03",
"Y. c #E4A40B",
"T. c #ECA40C",
"R. c #E4AA0B",
"E. c #EBAC0B",
"W. c #F1A301",
"Q. c #F2AB01",
"!. c #F1AC0B",
"~. c #ECB304",
"^. c #EDB40A",
"/. c #EEB809",
"(. c #F3B402",
"). c #F3BA04",
"_. c #F3B60B",
"`. c #F5BD0A",
"'. c #F8BF0C",
"]. c #F9BA03",
"[. c #E3A415",
"{. c #EBA415",
"}. c #E4AC15",
"|. c #EBAC15",
" X c #E3A41A",
".X c #EBA41A",
"XX c #E5AB1A",
"oX c #EBAC1B",
"OX c #F2A616",
"+X c #F2AB17",
"@X c #F3A519",
"#X c #F4AC1A",
"$X c #FBAD1A",
"%X c #E6B114",
"&X c #EBB315",
"*X c #ECBA16",
"=X c #E4B31B",
"-X c #ECB31A",
";X c #EDBB1A",
":X c #E2BE1C",
">X c #F2B416",
",X c #F2BA16",
"<X c #F4B41A",
"1X c #FEB41C",
"2X c #F3BC1A",
"3X c #FDBB1C",
"4X c #EDB421",
"5X c #ECBD22",
"6X c #F3B223",
"7X c #FFB720",
"8X c #F1BB22",
"9X c #FEBB21",
"0X c #E9AE21",
"qX c #DFC01C",
"wX c #F5C203",
"eX c #FAC403",
"rX c #FCCA03",
"tX c #F5C10A",
"yX c #FAC30C",
"uX c #FDCB0C",
"iX c #F7C80A",
"pX c #FFD808",
"aX c #E5C31C",
"sX c #EBC31D",
"dX c #EBC91D",
"fX c #FBC412",
"gX c #FECA13",
"hX c #F5C31B",
"jX c #FDC41C",
"kX c #F5CB1D",
"lX c #FDCB1C",
"zX c #F7C314",
"xX c #FFD21D",
"cX c #FFD81F",
"vX c #EDC424",
"bX c #E8C629",
"nX c #F4C423",
"mX c #FEC324",
"MX c #F4CB23",
"NX c #FDCC24",
"BX c #FECC29",
"VX c #F6C929",
"CX c #FED522",
"ZX c #FFDB24",
"AX c #FED42B",
"SX c #FFDB2C",
"DX c #F6D329",
"FX c #FFDF30",
"GX c #FEE425",
"HX c #FFE12E",
"JX c #FBEB2A",
"KX c #FFE927",
"LX c #FFE130",
"PX c #FCFF30",
"IX c #FCF72D",
"UX c None",
/* pixels */
"UXUXUXUXUXUXUXUXUXUXUXUXUXUXUXUXUXUXUXUXUXUXUXUXUXUXUXUXO.#.K.:X:XK.A...UXUXUXUXUXUXUXUXUXUXUXUXUXUXUXUXUXUXUXUXUXUXUXUXUXUXUXUX",
"UXUXUXUXUXUXUXUXUXUXUXUXUXUXUXUXUXUXUXUXUXUXUXUXA.dXkXkXxXxXlXlXkXjXlXlXkXkXdXK.#.UXUXUXUXUXUXUXUXUXUXUXUXUXUXUXUXUXUXUXUXUXUXUX",
"UXUXUXUXUXUXUXUXUXUXUXUXUXUXUXUXUXUXUXUXUX:XkXxXkXlXkXxXxXlXlXlXxXlXjXjXjXhX3XhXlXkXaX#.UXUXUXUXUXUXUXUXUXUXUXUXUXUXUXUXUXUXUXUX",
"UXUXUXUXUXUXUXUXUXUXUXUXUXUXUXUXUXUX+.kXxXhXhXkXlXlXlXhXkXxXxXxX2X*XlXxXhX3XlXjX3X3XhXlXkXH.UXUXUXUXUXUXUXUXUXUXUXUXUXUXUXUXUXUX",
"UXUXUXUXUXUXUXUXUXUXUXUXUXUXUXUX+.kXjX,X3X3XjXzXjXlXhXXX<XlXxXxX%XoXhXgX}.-XjXzXhXjXjX3X2XlXkXA.UXUXUXUXUXUXUXUXUXUXUXUXUXUXUXUX",
"UXUXUXUXUXUXUXUXUXUXUXUXUXUXUXaXlX#X#X1X<X,X3X>X,XlXzX>X,XhXlXlX&XzXkXhX|.2X2X2X&X,X>X3XjX3X3XlXdXUXUXUXUXUXUXUXUXUXUXUXUXUXUXUX",
"UXUXUXUXUXUXUXUXUXUXUXUXUX+.xX<X$X1X1X1XT.XX3X1X>X3XjX,X>X,XxXlX2X&XhXhX,X%X>X&X,X2X-XT.jXlXmXjXkXxXH.UXUXUXUXUXUXUXUXUXUXUXUXUX",
"UXUXUXUXUXUXUXUXUXUXUXUXdXlX#X$X$X|.$X$X>X#X>X1X,X|.1X>XS.>XjXlXhX|.hXlX>X}.hX|.2X&X,X-XxXCXZXCXNX3XxXaXUXUXUXUXUXUXUXUXUXUXUXUX",
"UXUXUXUXUXUXUXUXUXUXUXaXhX<X1X1X>X[.T.$X1X,XT.#X+Xb.#X1X3XhXmXlXxXCXNXxXlXlXxXhX2X%X%XhXZXZXd.m ZXCX3XkXkXUXUXUXUXUXUXUXUXUXUXUX",
"UXUXUXUXUXUXUXUXUXUXlXhX3X3X3X3X1X>X|.<X$XOXb.$X1X3XmXmX5X;X=X=X}.}.%X;XhXNXxXxXlXlX2XxXKX{ N.mX2X#XZXlXkXCXUXUXUXUXUXUXUXUXUXUX",
"UXUXUXUXUXUXUXUXUXkXhXhXzX3XjX3X3X2X%X{.$X$X1XmX8X=XD.Z.R.R.E.!.E.T.R.k.4.4.S.;XCXxXxXZXGX4 $XJX[ hXJXGXNXlXxXUXUXUXUXUXUXUXUXUX",
"UXUXUXUXUXUXUXUXaXkXlXlX%X%X3XjXjX3XoX+X3XNXvXD.R.^.'.fXgXgXgXlXgXgXgXfXfX_.T.2.:.}.kXZXGXc.#X_ B.IXB.} CXxXlXkXUXUXUXUXUXUXUXUX",
"UXUXUXUXUXUXUX:XlXkXxXlX2X2X2XhXlXjXjXNXvXD.I.`.yXtXzXfXgXgXlXgX3XyXfXfX'.fXfXyX/.<.:.D.ZXGXZX .AX{ OXN V.JXxXlXsXUXUXUXUXUXUXUX",
"UXUXUXUXUXUXO.xXkXlXxXxXlX2X;X>XlXkXNXK.1.R.yX'.tXfXgXfXyXgXgXgXtX'.yX'.'.'.'.'.fXeXU.%.:.nXZXKXMX4 #X[ ZXJXKXxXxXH.UXUXUXUXUXUX",
"UXUXUXUXUXUXxXhXxXzX2XxXxXlX%X2XZXDXD.$./.tX/.~.tXgXgXyX'.gXgXgX'.'.'.'.'.`._.eXgXuXuX).h.3.;XMXZX| 4 NXJX_ c.GXxXcXp UXUXUXUXUX",
"UXUXUXUXUX;XhXjXlXlX2X2X&X&XxXZXbXd C.R././.^.~.~.tXuXwXeXuXyX)./.yX`.).).).].yXyX/.>X*XdXVX5X}.NXZXnX2X{ M  .GXZXxXkXUXUXUXUXUX",
"UXUXUXUX..NX3XhXXX<XlXhX|.-XZXbXf C Z.I.C.L.tX`.~.~.iX).wXuXwXtX).).).).).(.).*X;XsXMXNX;XR.L.1.*XZXGX` 3 $XPXnXZXZXxXA.UXUXUXUX",
"UXUXUXUXdX<XjX<X|.-X&X<XhXxXMXd C C.C.1.I./.iX~.C.tXrXtX~.).wXwXwX].).).).(.^.;XZXSXSX%X~.wXrX].L.;XZXNX2XJXoXn | KXkXxXUXUXUXUX",
"UXUXUX..lX$X3X1X<XoX{.|.jXAXX.s 1.1.4.wXpXrXZ.~.wXrXrXrXeX).)./.^.;X^.~.).).~.C.R.NXCX^././.*X*XU.h.sXAXCXn 4 V.$XGXxXNXA.UXUXUX",
"UXUXUXhX6X1X|.+X<X#X+X3XNXJ.L *.1.,.C.pXpX).,.C.I.wXrX)./.&X*XsXkX-X1.~.~.~.~.).eXzXCXhXsXMXMXlX/.P.Z.NXCX| ` JX<XN.CXlXxXUXUXUX",
"UXUXUXjX$X$X{.n.OX$X1X9XbX4.$.4.,.,.*.1.wX1.,.1.L.^.&X;XhXxXxXxXxXC.U.U.P.L.~.rXrXtXxXxXxXcXZXlX^.U.h.%XNXSXoXm B.NXSXlXxXO.UXUX",
"UXUXG.3X1X1X#X+X+Xn.1XmXK.,.*.1.,.*.*.,.I.Z.%X1.1.*XlXxXCXxXxXxXxXE.I.P.P.1.).rXeX).lXxXlX%X3.1.I.k.j.2.hXNX@XhX<XN.B.NXjX;XUXUX",
"UXUXhX2X1X<X1XOXb..X7X:XZ.,.<.1.,.Z.R.&XsXxXsX,.P.<.<.jXxXxXxXlXCX'.L.h.P.~.].(.<.1.lX%X1.,.%.=.P.<.k.a.{.mXZXc.m B.M 3XjXNXUXUX",
"UXUXlX3X3X|.#X<X7X1XmXD.L.1.Y.%X*XkXxXxXxXlX$.$.L.L.h.U.kXxXxXxXxXlXj.<.W.eX).%.%.=.jX&X=.<.P.L.E.<.W f.:.nXNXM N.ZXhX3X3XlXo.UX",
"UX+.jXjX2X#X-XoX#X3X-X%XsXkXxXZXcXxXCXxXxXxX=.<.h.W.W.h.!.CXxXxXxXCX,X&.&.f.=.=.a.a.hX,X3.%XsXkXkXT.W &.Q XXmXmXhX9X3X1X1X3XJ.UX",
"UX=XkXxX|.|.2XoX2X3X*XhX;X-XY.3.lXxXCXxXNXCX!.j.j.j.h.f.a.zXCXCXCXxXxX2.W h.W.Q.Q.W.,XcXkXxXcXZXGX>X&.;.E >.jX1X1X1X$X1X$X1X2XUX",
"UX2XkXlXhX<X-X&X3XNXe.<.<.<.<.=.R.CXCXCXCXZXkXa.a.a.a.a.&.k.xXCXCXCXZX>Xp.Q.W.j.j.g.,XCXZXZXNX-X3.;.! R E ! 2X1X1X$X#X1X$X$XjXUX",
"UXkXlXxXxXxXxXlXxXVX4.h.P.Y.R.%XhXCXZXCXCXZXZXT.Q p.Q Q Q E 2XZXZXCXCXCXT.g.g.g.a.s.>XZX;X3.%.B Z Q V r H A oXmX<X+X-X.X1X1XjXu ",
"i NXxXxXlXxXxXlXxX8X:.E.;XMXCXZXSXZXZXZXAXZXZXNXQ E E H H V >.ZXZXCXZXZXjXs.s.s.s.] +XZX;.J E ' l R H h 9 0 m.CXoX[.-X{.1X$XjXo.",
"X.jXkXxX*X2XhXxXCXXX%.2XHXSXHXSXNX=XhXHXZXSXZXSX{.b Z F F c c 2XSXSXAXAXSXT.] p.] ' T.SXd.H J K l l F F 0 * 6.NXjXXX XoX3X1XjX9.",
"F.hXlX<XXX4X2XxXCX XW {.ZXnXXX:.P V W NXSXSXZXSXCXH z z z z h ^ HXZXSXZXSXkX] ' ' J f.HXv.F F F F > z z > O S xXlXjXjXjX3X3X3X=X",
"J.3XjX2XS.S.-XxXxX XR &.Y =.a.F E F Z |.SXSXAXSXSX[.h j j h g z NXFXSXAXSXFXl.J J G ;.HXb.b b z b 9 0 ; o * / CXlXlXjXlXjXjX3X2X",
"J.3XjXjX2XhXlXlXCXr.R R H Q W.;.k.}.vXDXAXSXSXFXFXAXF g g g 1 g hXSXAXSXSXSXVXJ G G Q FXoXj b z j j ; O o = / ZXxXxXlXlXlXgX3X2X",
"F.1X3XfXjXjXlXjXNX[.! ;.2.S.;XMXDXSXFXLXFXSXSXAXSXHX.X1 g g 1 0 5XFXSXSXSXSXFXB.F G J AX<Xz z z j j j - O , / AXlXxXxXlXlXlXjX=X",
"@.3X1X3X3X3XjXjXxX.Xr.MXVXSXSXFXLXLXVXXXM.SXSXAXAXFXSXA 1 0 1 1 8XVXVXSXSXSXFXVX8 w H NXVXb z j j j k % ; , ( ZXxXxXxXxXxXxXlX9.",
"i 3X$X1X1X3X3X3XjXoX XLXFXLXSXVX X5.C r w 0XFXSXSXAXHXoX1 1 1 < -X0X-.FXAXSXAXFX5.+ c VXVXc z j j j - O < , 7.ZXlXlX2XkXxXxXNXX.",
"UX3X$X1X1X$XoX3X3X#Xq.AXnX X-.C B l Z a.s.f.AXSXAXAXAXSXS < 9 < oX0X< 2XFXAXAXSXVX7 c 2XAXV l z z > o ; < 2 .XCXlXXX<X-XlXxXxXu ",
"UX2X$X$X.X-X#X#X1X3X:.%.P Z Z Z Z B a.].(.W.2XAXAXAXAXAX-X0 0 <  X-X= D AXAXAXAXFX5.: -XAX! z z h X ; < k k 8XNXkX XXXXXhXxXlXUX",
"UX%X$X1X{. X.XOX1X3Xw.W ;.W ! P Z B &.(.Q.Q.!.BXBXBXAXBXAX! < 9 m.-X; - m.SXBXBXAXmXq {.SX^ z c w - > 0 y S BX3X3X2X XhXNXlX2XUX",
"UX0.1X1X#Xm.b.$X1X1X.XY %.%.W W P Z Q.].(.Q.Q.6XBXBXBXmXNX<Xq > v.0X> - q 9XBXBXNXAXl.v.AX6.l c w > < w k t.NX1X3XjXjXjXlXjXXXUX",
"UXu 9X1X3X1X1X1X$X$X1X-.%.%.W W P Z P.].].(.(.!.mXNXmXBXmXBX~ ; 7.oX: : % ~ NXmXmXBX9X.XmXv.x c 9 w w l v 8X7X1X3X3X3X3XjXmXX.UX",
"UXUX3X2X3X1X1X1X1X1X1Xm.I %.Y I I L %.].].(.(.Q.<XmX9X9X9XmXoX7 -..X: : & : oXNXmX9XmX9XmXn.x 9 9 v l z 6.mX$X1X1X1X3X9X9XjXUXUX",
"UXUXF.3X3X3X3X3X3X1X1X<X$.$.I I P L C ,.eX(.(.(.!.9X9X9X9X9XmX( U b.& & & X s mX9X9X9X9XmX.Xl > l r x B 4X9X$X7X1X7X7X1X3X$XUXUX",
"UXUXu mXjXjXfX3X#X3X1X3Xu.L I I P L B C <.(.(.~.U.$X9X7X9X7X9X@X~ b.& & $ $ . t.9X7X9X7X9XOX7 9 r B B 7.BX1X1XoX$X#X1X1X9X@.UXUX",
"UXUXUX<XhXlXjX+X-XoX<X3X2X5.L P L C C a e L (.U.U.!.7X7X7X1X7X7XOXw.$ $ $ $ . 6 <X7X7X7X7X@Xw r v A S VXmX3X#XoX<X#X1X$XjXUXUXUX",
"UXUXUXX.jXxXkX XoX XjX3XmXoXD L C D a a t e L.Q.P.j.$X$X$X7X$X$X3Xv.X $ @ @ .   T 9X$X7X7X$Xx l V B oXNX3XjXoX X XoX1X3XF.UXUXUX",
"UXUXUXUX3XkXxX2X}.%XjXjXjXjXM.t D s s e e 8 W U.P.h.T.7X7X$X$X7X1X7.X X # . . @ : @X7X$X1X1XS c x M.ZXlXjXjXjXoX-X3X1XmXUXUXUXUX",
"UXUXUXUXo.jXkXxXxXlXxXlXjXjXlX7.e t t e e 7 t W.j.g.a.@X1X7X7X1X9Xv.. . # @ % ; = S 3X1X$X7X^ l 7.AXlXlXxXlXlXjXjX3XjXy.UXUXUXUX",
"UXUXUXUXUX-XkXxXxXxXxXjX}.}.hXlX7.7 q q q 7 7 2.l.f.e U mX1X1X1X9Xt.. X * - - 7 w < n.9X1X9X^ 8.SXcXzX2XlXlXlXlXlXjXNXUXUXUXUXUX",
"UXUXUXUXUXUX9XlXxXxXxX&Xe.%X|.lXNXw.7 9 9 > - / g.! % & #X9X9X9XmXv.* > q s T -.B 1 A 7XmX<X.XNXxXhX%XhXjXxXxXlXlXjXf UXUXUXUXUX",
"UXUXUXUXUXUX0.mXlXxXxX,X%XkX2X&XjXxX.Xy - > : - W v o o ( NXmXmXNXM.; q.u.|.q.e.oXl l z.6X XhXlXlXjX%X%X2XkXxXxXjXXXUXUXUXUXUXUX",
"UXUXUXUXUXUXUXoX3XkXxXlX}.*XhXS.2XlXxXkX( > ; ; w ! < = 9 9XNXNXBXm., v S.#X8.w.M.l c 6.-X3XlX3X3.%XxXjX%XhXxXlX<XUXUXUXUXUXUXUX",
"UXUXUXUXUXUXUXUX8X3XlXxXxX*XS.;Xe.&XhXxXCX$X) k 2 g k 0 2 z.AXNXAX.X1 S t.^ A z l ) 6XNX3X3X3X,X%X;X,XxXlXxXlX3XUXUXUXUXUXUXUXUX",
"UXUXUXUXUXUXUXUXUX1X2XxXlXhX&XS.*XhX-X%XlXCXCX2Xx.A k g 2 j nXFXHX.X0 j l l K z.6X9X1X1X<X>X>X3X2X-Xe.3XlXjX9Xy.UXUXUXUXUXUXUXUX",
"UXUXUXUXUXUXUXUXUXUX<X3XjXlXlX&XxX;Xe.S.%X2XxXxXZXNX2X.Xx.) .XVXXX7.) x.B.$XmX3X1X$X#X#X#XnXhXmX#Xb.|.jX3X3Xu UXUXUXUXUXUXUXUXUX",
"UXUXUXUXUXUXUXUXUXUXUX<X3XjXjXxXjXe.=XhXXXXX&X2XhXxXxXxXCXCX3XoX$XjXNXmXjX3X1X1X$X1X X2.$X3XoX X+X3X3X1X1X0.UXUXUXUXUXUXUXUXUXUX",
"UXUXUXUXUXUXUXUXUXUXUXUXoX3X2XjXjX2XxX{.e.e.2X&X4.hX,X2XxXxXlXlXlXjX3X3X>X2X<X[.{.$X<X2.n.$XM.n.$X1X1X6XUXUXUXUXUXUXUXUXUXUXUXUX",
"UXUXUXUXUXUXUXUXUXUXUXUXUXy.1X3X3XlXjX|.2XkXlX3.=X,Xq.|.jX&Xk.hX&X<X>X>Xl.{.<XOX[.+X1Xb.q.+X#X1X$X3X XUXUXUXUXUXUXUXUXUXUXUXUXUX",
"UXUXUXUXUXUXUXUXUXUXUXUXUXUXUXoX1X3XjXjXlXlX3Xe.lX&X%X{.&X XD.2X<X|.|.2XOX[.>X$Xb.{.>Xb.{.1X1X1X7Xo.UXUXUXUXUXUXUXUXUXUXUXUXUXUX",
"UXUXUXUXUXUXUXUXUXUXUXUXUXUXUXUXy.1X3X3XjXjX3X,XlX3X[.e.hX<X-XzXhX-X%X2X|.XX2X,X|.-X3X3X3X1X1Xy.UXUXUXUXUXUXUXUXUXUXUXUXUXUXUXUX",
"UXUXUXUXUXUXUXUXUXUXUXUXUXUXUXUXUXUX0.<X1X1X3XjXjXlX%X2XlX,Xe.;XkXS.S.lX-XhX*XkXlXjXjX1X3Xu.UXUXUXUXUXUXUXUXUXUXUXUXUXUXUXUXUXUX",
"UXUXUXUXUXUXUXUXUXUXUXUXUXUXUXUXUXUXUXUX0.0X1X7X3X3XjXlXlXlXlXxXxXkXxXxXxXxXxXlXjX1X6Xu.UXUXUXUXUXUXUXUXUXUXUXUXUXUXUXUXUXUXUXUX",
"UXUXUXUXUXUXUXUXUXUXUXUXUXUXUXUXUXUXUXUXUXUXUXy. X#X1X$X<X3X3XjXjXjXmX3X2X7X$X.Xu.UXUXUXUXUXUXUXUXUXUXUXUXUXUXUXUXUXUXUXUXUXUXUX",
"UXUXUXUXUXUXUXUXUXUXUXUXUXUXUXUXUXUXUXUXUXUXUXUXUXUXUXUX6Xu.y.y.y.y.y.6XUXUXUXUXUXUXUXUXUXUXUXUXUXUXUXUXUXUXUXUXUXUXUXUXUXUXUXUX"
};
