/* XPM */
static char *_db040edad624d8bbe1b18ef720850a4[] = {
/* columns rows colors chars-per-pixel */
"32 32 196 2 ",
"   c #8D2401",
".  c #862C02",
"X  c #8B2D01",
"o  c #9E2704",
"O  c #9E2B04",
"+  c #893302",
"@  c #9B3704",
"#  c #953802",
"$  c #A02D03",
"%  c #A43105",
"&  c #AB3005",
"*  c #A73C03",
"=  c #AB3A04",
"-  c #B43D02",
";  c #BB3900",
":  c #A24103",
">  c #AD4706",
",  c #AD4B05",
"<  c #B34304",
"1  c #BB4404",
"2  c #BB4C05",
"3  c #B64D0A",
"4  c #B35607",
"5  c #BC5105",
"6  c #BB5A05",
"7  c #BE5F09",
"8  c #957712",
"9  c #9B7514",
"0  c #937913",
"q  c #9D7913",
"w  c #BD6304",
"e  c #C14304",
"r  c #C54D02",
"t  c #CA4B02",
"y  c #C25504",
"u  c #C95401",
"i  c #C35B04",
"p  c #CC5D03",
"a  c #C9530A",
"s  c #C25C0A",
"d  c #D45700",
"f  c #D25900",
"g  c #CE6704",
"h  c #C36E06",
"j  c #CD6C04",
"k  c #CE630B",
"l  c #CC6A0C",
"z  c #D26600",
"x  c #DC6700",
"c  c #D26D08",
"v  c #C77205",
"b  c #CA7404",
"n  c #C47B07",
"m  c #CB7904",
"M  c #CD720B",
"N  c #D17604",
"B  c #D07D05",
"V  c #DA7D05",
"C  c #D5710D",
"Z  c #C87910",
"A  c #E47F03",
"S  c #F2730F",
"D  c #F47510",
"F  c #B18D16",
"G  c #B98C17",
"H  c #BE8E18",
"J  c #B39516",
"K  c #BC9B17",
"L  c #CF8005",
"P  c #C5820A",
"I  c #DC8401",
"U  c #D28C02",
"Y  c #DD8903",
"T  c #D3840D",
"R  c #DC850A",
"E  c #DD8D0B",
"W  c #D49204",
"Q  c #DC9504",
"!  c #DD9D07",
"~  c #DC9D0B",
"^  c #D58310",
"/  c #DB8D14",
"(  c #C59817",
")  c #C79619",
"_  c #C49B18",
"`  c #CA981D",
"'  c #DE9515",
"]  c #DC9914",
"[  c #D79219",
"{  c #DF9718",
"}  c #D49C1C",
"|  c #E68000",
" . c #EC9601",
".. c #E49B03",
"X. c #EB9A01",
"o. c #E29F0B",
"O. c #E18B12",
"+. c #F38914",
"@. c #E39516",
"#. c #EB9515",
"$. c #E49B14",
"%. c #E99D15",
"&. c #E39718",
"*. c #E29C19",
"=. c #EA9F18",
"-. c #F59116",
";. c #F29C17",
":. c #F59718",
">. c #F59B18",
",. c #DFA303",
"<. c #DCA208",
"1. c #C5A418",
"2. c #CDA019",
"3. c #CBAA1A",
"4. c #DBA712",
"5. c #D5A019",
"6. c #D4A819",
"7. c #DDAD1A",
"8. c #D7B21A",
"9. c #DBB51B",
"0. c #DCB81C",
"q. c #E5A402",
"w. c #EAA303",
"e. c #ECAA03",
"r. c #E3A30B",
"t. c #EAA60F",
"y. c #E6AC09",
"u. c #EBAD0D",
"i. c #ECB405",
"p. c #EEB30C",
"a. c #EEB90C",
"s. c #F3B303",
"d. c #F4BC04",
"f. c #F9BC01",
"g. c #F4BC0A",
"h. c #E2A315",
"j. c #ECA416",
"k. c #E4AC14",
"l. c #EBAC16",
"z. c #E6A319",
"x. c #ECA41A",
"c. c #E5AA1A",
"v. c #ECAC1B",
"b. c #F1A514",
"n. c #F2AD16",
"m. c #F2A719",
"M. c #FAA61C",
"N. c #F4AC1A",
"B. c #FBAD1A",
"V. c #E3B114",
"C. c #EBB416",
"Z. c #EFBB16",
"A. c #E2B41C",
"S. c #EDB41A",
"D. c #E4B81E",
"F. c #EDBA1B",
"G. c #F3B414",
"H. c #F2BC15",
"J. c #F3B41B",
"K. c #FDB41C",
"L. c #F3BC1A",
"P. c #FCBC1C",
"I. c #EEB521",
"U. c #ECBD23",
"Y. c #F5B422",
"T. c #F0BF20",
"R. c #FDBD21",
"E. c #F7C100",
"W. c #F9C505",
"Q. c #F8CA06",
"!. c #F7C008",
"~. c #FAC50D",
"^. c #EDC41C",
"/. c #F4C413",
"(. c #FCC511",
"). c #FDCA16",
"_. c #F5C31B",
"`. c #FCC31C",
"'. c #F6CA1D",
"]. c #FDCB1D",
"[. c #FFD21E",
"{. c #FFDA1E",
"}. c #F3C323",
"|. c #FDC424",
" X c #F5C923",
".X c #FCCA23",
"XX c #FFCD2B",
"oX c #FDD422",
"OX c #FEDB23",
"+X c #F7D329",
"@X c #FDD52A",
"#X c #FFDC2D",
"$X c #FFE622",
"%X c #FFE02D",
"&X c #FFE230",
"*X c None",
/* pixels */
"*X*X*X*X*X*X*X*X*X*X*X*X*X3.9.^.^.9.3.*X*X*X*X*X*X*X*X*X*X*X*X*X",
"*X*X*X*X*X*X*X*X*X*X0.'.[.].[.[.`.].].`._.D.*X*X*X*X*X*X*X*X*X*X",
"*X*X*X*X*X*X*X*XV.P.P.`.`.L._.].C._.C.P.P.P.`.F.*X*X*X*X*X*X*X*X",
"*X*X*X*X*X*X1.P.B.B.n.B.G.J.G.].L.`.H.C.C.C.]..X[.1.*X*X*X*X*X*X",
"*X*X*X*X*X8.`.K.G.l.n.N.B.J.F.H.Z._.`.'._.'.`.:.`.OX0.*X*X*X*X*X",
"*X*X*X*X3.[.G.`.P.n.K.F.Z.a.H.H.a.G.u.l.C.OXB.:.J.P.oX0.*X*X*X*X",
"*X*X*XJ [.]._.L.].}.V.a.~.(.).).(.(.~.g.p.o.^..X:.S .XOXK *X*X*X",
"*X*X*X].]._._.'.D.~ i.a.g.~.~.~.g.g.d.g.~.a.k.^.K.>.+.P.$X*X*X*X",
"*X*X7.`.S.J._.A.n r.i.a.i.W.d.!.d.d.s.a. X Xa.y.^.R.-.M.].^.*X*X",
"*X*X`.B.N.J.}.P W i.Q.,.d.W.a.g.Z.i.i.i.(.'././.y.'.M.D P.OX0 *X",
"*X2.P.b.b.R.4.U W Q y.<.y./.[.[.H.q.q.E.W.].'.C.q.r..Xm.b.`.D.*X",
"*XL.K.N.N.F.<.r.V.H._.! ! u.[.[.)...e.e.Q H.Q Q o.I C.M.-.M.].*X",
"*X].J.l.P.C.C.C.[.OX[...X.X.H.oXOXt.Y X. .L./.oXH.V O.P.R.K.P.8 ",
"F {.'._.}.o.o.o.'.OXOXG.I I I ].OX'.X.X. ._.'.$.R j c J.B.N.K.( ",
"6.[.'.].L.r.+XOX XoXOX+XV z p %.%X#XG.| A F.R z p p < x.J.v.P.c.",
"S.`.c.'.F.R l.E z $.#X%Xv.t r p oX#X@X| x J.R p r 1 O $.[.`.P.F.",
"S.P._.[.J.N Y l.^.+X#X#X&Xg ; 1  X&X&Xv.d v.O.t t = o &.OX[.].L.",
"5.P.P.`.J.D.#X@XU./ *.#X&Xv.; 1 v. X&X@X5 @.&.t t = & x.[.].[.A.",
"G K.N.N.J.z.] N i I  .XX@X#Xl - &.M @X&X[ ^ x.r < % 1 T.L.v.[._ ",
"*XP.x.j.K./ N N j e.s.J.XXXXv.1 { = *.@X X{ x.u - - l |.P.L.[.q ",
"*XP.K.K.K.z.B B b e.f.s.R.|.|.M ^ * > |.|.R.m.y 1 5 &.R.P.`.|.*X",
"*X5.`.P.K.K.T m v b e.s.G.R.R.m.^ : X Z |.|.N.2 5 l R.K.K.K.c.*X",
"*X*X[.L.v.P.n.h h w i e.e.K.K.R.%.# . + x.R.M.s i v..Xx.v.P.9 *X",
"*X*XC.].L.]._.' 4 6 , Y X.b.K.K.=.. .   s P.B.g @.oX].L.P.S.*X*X",
"*X*X*X.X{._.k.`./ > = i Y 4 K.R.=.@ > 7 2 #.K.z.[.L.'.[.].*X*X*X",
"*X*X*XH [.].C.Z.'.z.3 % y O / XXx.7 h.] l C Y.'.H.Z._.OX) *X*X*X",
"*X*X*X*X} [.'.4.C._._.@.k e a @XI.a C C #.K.P.P.C.Z.].S.*X*X*X*X",
"*X*X*X*X*X5.].].Z.c.C.]..XL.m.F.I.=.N.K.K.l.J.J.N.P.v.*X*X*X*X*X",
"*X*X*X*X*X*X} `.`.J.C.C.k.Z.`.L.P.P.G.n.b.j.z.n.K.} *X*X*X*X*X*X",
"*X*X*X*X*X*X*X*XJ.`.].J.L.h.C.C.S.l.c.n.v.N.B.v.*X*X*X*X*X*X*X*X",
"*X*X*X*X*X*X*X*X*X*Xv.P.`._.`._._._.`.].`.J.` *X*X*X*X*X*X*X*X*X",
"*X*X*X*X*X*X*X*X*X*X*X*X*XJ.I.v.S.F.Y.} *X*X*X*X*X*X*X*X*X*X*X*X"
};
