/* XPM */
static char *b9c346d62f5d4e8dc70974c3e01b3648[] = {
/* columns rows colors chars-per-pixel */
"16 16 206 2 ",
"   c #832100",
".  c #AC3101",
"X  c #B13001",
"o  c #BC3E00",
"O  c #BE4501",
"+  c #B74C07",
"@  c #B55404",
"#  c #B45405",
"$  c #BD5303",
"%  c #BD5005",
"&  c #BA5E09",
"*  c #987413",
"=  c #997813",
"-  c #997914",
";  c #B9660C",
":  c #BC690D",
">  c #C4670F",
",  c #CA6F0D",
"<  c #CA6E0E",
"1  c #D16705",
"2  c #CA7501",
"3  c #CD7806",
"4  c #CE720E",
"5  c #D77408",
"6  c #D6770C",
"7  c #D6770F",
"8  c #DA730B",
"9  c #D57A0E",
"0  c #DB7C0A",
"q  c #CF7D13",
"w  c #988415",
"e  c #A58115",
"r  c #AF8D16",
"t  c #B08716",
"y  c #D28202",
"u  c #D88002",
"i  c #D3830C",
"p  c #D98508",
"a  c #D9800F",
"s  c #D59604",
"d  c #DA8011",
"f  c #D88C13",
"g  c #DC8814",
"h  c #C6911B",
"j  c #CB9E19",
"k  c #D29A18",
"l  c #E08700",
"z  c #E79300",
"x  c #E9920B",
"c  c #E48A12",
"v  c #E89612",
"b  c #E99314",
"n  c #E19814",
"m  c #E49E14",
"M  c #EA9B18",
"N  c #F89D19",
"B  c #FC9D1A",
"V  c #DCA10D",
"C  c #C4A318",
"Z  c #C8A71A",
"A  c #CEA91B",
"S  c #CEAD1A",
"D  c #D6A018",
"F  c #D9A31C",
"G  c #DFA51E",
"H  c #D0A918",
"J  c #D8AE19",
"K  c #D2B21B",
"L  c #E9A700",
"P  c #E6A50A",
"I  c #E5AA0B",
"U  c #E4AA0C",
"Y  c #EAAE0A",
"T  c #EEAA0C",
"R  c #F5AD0D",
"E  c #EBB504",
"W  c #EEB20D",
"Q  c #EBB40C",
"!  c #EEB60F",
"~  c #F3B202",
"^  c #F0B707",
"/  c #F0B805",
"(  c #F3BF06",
")  c #F6BD0A",
"_  c #F2B90E",
"`  c #EFA010",
"'  c #E8A713",
"]  c #E9AA14",
"[  c #E9A917",
"{  c #EAA119",
"}  c #EAA41A",
"|  c #E0AB18",
" . c #E6A81B",
".. c #E2A81E",
"X. c #E7AB1E",
"o. c #E1AE1C",
"O. c #EDA818",
"+. c #EAAD18",
"@. c #EAAE1A",
"#. c #F0A418",
"$. c #F0A919",
"%. c #F3AA1A",
"&. c #F5AB19",
"*. c #F0AC1E",
"=. c #F2AD1E",
"-. c #F4AC1C",
";. c #E9B112",
":. c #EBB312",
">. c #EFBE11",
",. c #E0B51B",
"<. c #EAB619",
"1. c #EEB418",
"2. c #EDB51B",
"3. c #EFB21D",
"4. c #EFB71D",
"5. c #E1BB1B",
"6. c #EEBA18",
"7. c #EEBA1A",
"8. c #EEBD1B",
"9. c #F7B710",
"0. c #F1B417",
"q. c #F2BB15",
"w. c #F0B916",
"e. c #F2BA16",
"r. c #F2BB17",
"t. c #F5BC16",
"y. c #F5BE17",
"u. c #F1B119",
"i. c #F3B01A",
"p. c #F3B01B",
"a. c #F1B31B",
"s. c #F4B018",
"d. c #F0B41B",
"f. c #F5B618",
"g. c #F5B61B",
"h. c #F6B71B",
"j. c #F1B31C",
"k. c #F6B71C",
"l. c #FBB21B",
"z. c #FFB31B",
"x. c #FAB619",
"c. c #FFB61A",
"v. c #FAB11C",
"b. c #F3B81B",
"n. c #F4B918",
"m. c #F1BC18",
"M. c #F1BD19",
"N. c #F7BF1A",
"B. c #F2B81C",
"V. c #F1BB1C",
"C. c #FAB91B",
"Z. c #FABB1A",
"A. c #FDBA19",
"S. c #FBBF19",
"D. c #FBBC1A",
"F. c #FDB81D",
"G. c #FEBE1D",
"H. c #ECAF21",
"J. c #FFBD21",
"K. c #F5C10A",
"L. c #F9C00B",
"P. c #F8C30C",
"I. c #FCC70F",
"U. c #F3C019",
"Y. c #F1C01A",
"T. c #F2C21A",
"R. c #F6C019",
"E. c #F6C21A",
"W. c #F4C41A",
"Q. c #F1C21C",
"!. c #F3C21C",
"~. c #F4C21D",
"^. c #F4C31D",
"/. c #F1C71C",
"(. c #F7C51C",
"). c #F7C51D",
"_. c #F8C31B",
"`. c #FFC21B",
"'. c #F9C51A",
"]. c #FCC21C",
"[. c #FFC31D",
"{. c #FFC11E",
"}. c #FFC21F",
"|. c #FAC41C",
" X c #FCC41C",
".X c #FDC51C",
"XX c #FCC51E",
"oX c #F7CA1A",
"OX c #F8CA1D",
"+X c #F9CA1D",
"@X c #FCCA1E",
"#X c #FFD01C",
"$X c #FFD41D",
"%X c #FFD61C",
"&X c #FED41F",
"*X c #FFD91E",
"=X c #F4C326",
"-X c #F4C327",
";X c #FFCE26",
":X c #F7CA28",
">X c #FFD923",
",X c #F8D32B",
"<X c #FFD62E",
"1X c #FFDF2A",
"2X c #FFE02B",
"3X c None",
/* pixels */
"3X3X3X3X3XZ 5./.Q.,.A 3X3X3X3X3X",
"3X3X3X3Xp.A.D._.R.R.D.~.S 3X3X3X",
"3X3XC `.x.s.0.q.q.q.Q.v.G.K 3X3X",
"3X3X#X(.<.Q P.I.L.) ! 7.N [.w 3X",
"3Xd.C.| s E ( K./ / oX>.q.B ~.3X",
"= c.p.V U I Y %XW L _ :.P %.z.r ",
"H .X1.;.>Xy.p t.OXz T 7.p v F.D ",
"8.OX] ' 1.2X5 1 2X` x 0 O < |.k.",
"d.[.] @. .,XH.O -X:X0 8 X > *X(.",
"k l.O.i 0 9.<X4 < -XX.9 . g ;XJ ",
"* [.&.3 y ~ }.=.# : ;X9 % -.[.t ",
"3XQ._.m # 2 R J.;   M c n |.p.3X",
"3X- %XM.f + $ -.q & 7 k.W.%Xe 3X",
"3X3Xj _.Q.@.9 } { b #.g.D.o.3X3X",
"3X3X3XF n.y.Q.M.n.d.s.%.h 3X3X3X",
"3X3X3X3X3XG d.B.B.B...3X3X3X3X3X"
};
